<?xml version="1.0" standalone="no"?>
<!DOCTYPE svg PUBLIC "-//W3C//DTD SVG 20010904//EN"
 "http://www.w3.org/TR/2001/REC-SVG-20010904/DTD/svg10.dtd">
<svg version="1.0" xmlns="http://www.w3.org/2000/svg"
 width="125.000000pt" height="125.000000pt" viewBox="0 0 125.000000 125.000000"
 preserveAspectRatio="xMidYMid meet">
<metadata>
Created by potrace 1.14, written by Peter Selinger 2001-2017
</metadata>
<g transform="translate(0.000000,125.000000) scale(0.100000,-0.100000)"
fill="#000000" stroke="none">
<path d="M596 1223 c-4 -16 -9 -59 -11 -94 -2 -35 -6 -77 -10 -94 -3 -17 -1
-39 7 -53 11 -21 10 -26 -5 -37 -12 -8 -14 -15 -8 -20 6 -3 11 -11 11 -16 0
-6 -4 -8 -9 -4 -12 7 -31 -26 -31 -55 0 -11 11 -31 24 -43 l25 -23 -27 1 c-21
0 -27 6 -35 35 -10 42 -23 58 -36 45 -6 -6 2 -45 20 -100 31 -96 35 -120 19
-130 -6 -4 -7 5 -4 23 7 32 -10 52 -20 25 -9 -23 -59 81 -51 106 4 13 -1 20
-16 24 -17 5 -21 12 -17 36 3 22 0 31 -13 34 -36 9 -44 -14 -24 -65 5 -14 2
-18 -14 -18 -12 0 -21 -4 -21 -8 0 -16 26 -43 45 -46 11 -2 32 -26 51 -61 l32
-58 -34 -33 c-41 -41 -57 -71 -50 -90 3 -9 -10 -29 -35 -51 -33 -30 -39 -41
-35 -64 3 -21 0 -29 -10 -29 -8 0 -22 -15 -30 -33 -16 -32 -15 -35 7 -69 19
-30 37 -41 102 -64 100 -34 112 -36 227 -39 152 -4 288 42 330 110 19 30 21
41 11 61 -13 30 -37 40 -56 24 -18 -15 -18 -12 -4 29 11 30 9 34 -27 66 -21
19 -39 42 -40 52 -2 42 -6 50 -44 91 -22 24 -40 45 -40 47 0 17 46 95 56 95 7
0 20 10 28 22 15 21 15 23 -4 30 -17 6 -18 11 -10 33 6 17 6 33 -2 50 -13 28
-26 31 -52 12 -17 -12 -17 -14 -2 -20 9 -4 16 -18 16 -33 0 -26 -1 -26 -25
-10 l-25 16 0 -34 c0 -19 4 -37 9 -40 5 -4 5 -18 -2 -35 -10 -28 -12 -29 -24
-11 -8 11 -11 32 -8 47 14 79 16 111 5 118 -17 11 -27 -5 -34 -50 -11 -82 -18
-103 -37 -108 -20 -5 -26 7 -9 18 5 3 15 15 21 27 9 18 8 19 -10 13 -23 -7
-29 9 -7 22 32 19 39 63 16 100 -10 17 -11 16 -7 -4 3 -12 -1 -30 -9 -40 -12
-17 -13 -16 -14 7 0 14 6 36 13 50 11 21 11 27 -2 36 -13 10 -13 16 -2 37 8
15 11 36 6 56 -3 17 -8 64 -10 105 -1 40 -7 82 -13 91 -8 16 -10 15 -16 -12z
m-6 -359 c0 -21 -20 -37 -20 -16 0 4 -3 17 -6 30 -5 18 -3 21 10 16 9 -3 16
-17 16 -30z m-5 -104 c7 -12 -12 -40 -26 -40 -10 0 -12 34 -2 43 9 10 21 9 28
-3z m67 -105 c-2 -19 -10 -40 -18 -46 -12 -9 -14 -4 -14 29 0 35 7 48 30 51 4
1 4 -15 2 -34z m48 -11 c0 -14 -4 -23 -9 -19 -11 6 -10 45 1 45 4 0 8 -12 8
-26z m-106 -31 c-1 -21 -3 -40 -4 -43 -5 -10 -16 55 -12 68 8 25 17 11 16 -25z
m-31 -35 c3 -23 0 -38 -11 -48 -14 -13 -15 -13 -5 0 6 9 7 23 2 35 -11 27 -11
45 0 45 5 0 11 -15 14 -32z m237 -67 c0 -16 -26 -31 -52 -31 -28 0 -28 1 -15
28 8 15 13 38 11 52 -4 24 -3 24 26 -9 16 -18 30 -37 30 -40z m-326 17 c-2
-24 -3 -44 -3 -46 -2 -10 -41 21 -41 33 0 11 36 55 45 55 1 0 0 -19 -1 -42z
m56 21 c0 -5 -7 -9 -15 -9 -9 0 -12 6 -9 15 6 15 24 11 24 -6z m102 -4 c-2
-14 -6 -25 -8 -25 -2 0 -4 11 -4 25 0 14 4 25 9 25 4 0 6 -11 3 -25z m72 -19
c-7 -29 -29 -35 -38 -10 -7 19 2 37 14 29 5 -3 12 0 15 6 11 17 16 3 9 -25z
m-129 -36 c-3 -5 -1 -10 4 -10 6 0 11 -4 11 -10 0 -13 -21 -13 -40 0 -13 9
-13 11 0 20 19 13 33 13 25 0z m75 -14 c0 -11 -19 -15 -25 -6 -3 5 1 10 9 10
9 0 16 -2 16 -4z m178 -16 c-2 -5 10 -20 26 -33 23 -18 27 -28 21 -43 -8 -18
-9 -18 -12 3 -3 13 -15 31 -29 42 -24 19 -32 41 -14 41 6 0 9 -4 8 -10z m-382
-40 c9 0 24 10 34 22 16 20 20 21 46 8 16 -7 33 -13 38 -11 5 1 6 -5 2 -14 -3
-9 -6 -40 -6 -68 l-1 -52 -13 36 c-14 41 -56 103 -63 95 -3 -3 -5 -23 -5 -45
0 -22 -3 -43 -9 -46 -5 -4 -10 -1 -10 4 -1 6 -3 16 -4 21 -1 6 -3 17 -4 25 -2
25 -20 17 -28 -12 -7 -27 -8 -27 -13 10 l-5 39 -27 -22 c-34 -26 -36 -18 -6
19 22 25 23 26 40 9 10 -10 25 -18 34 -18z m288 22 c7 -11 -11 -38 -20 -30 -3
4 -22 1 -40 -7 -32 -13 -33 -13 -31 8 1 12 9 25 17 29 21 9 68 10 74 0z m59
-6 c3 -8 3 -23 0 -34 -3 -13 3 -25 16 -34 19 -13 20 -17 6 -28 -11 -9 -18 -10
-29 -1 -17 14 -26 70 -14 77 5 4 7 12 4 20 -3 8 -1 14 3 14 5 0 11 -6 14 -14z
m-188 -61 c-4 -38 -15 -43 -15 -7 0 18 4 32 9 32 5 0 8 -11 6 -25z m115 4 c0
-5 5 -7 10 -4 6 3 10 -3 10 -13 0 -11 -9 -22 -20 -25 -12 -3 -20 0 -20 8 0 18
-27 26 -38 12 -6 -7 -12 -21 -15 -32 -4 -12 -5 -9 -4 10 1 20 10 33 27 42 31
16 50 16 50 2z m-340 -35 c0 -8 -5 -12 -10 -9 -6 4 -8 11 -5 16 9 14 15 11 15
-7z m160 -26 c0 -5 -9 -4 -20 2 -11 6 -18 15 -14 21 6 11 34 -7 34 -23z m310
13 c0 -5 -7 -12 -16 -15 -14 -5 -15 -4 -4 9 14 17 20 19 20 6z m-415 -11 c3
-6 -1 -7 -9 -4 -18 7 -21 14 -7 14 6 0 13 -4 16 -10z m345 -5 c7 -9 8 -15 2
-15 -5 0 -12 7 -16 15 -3 8 -4 15 -2 15 2 0 9 -7 16 -15z m-266 -14 c17 -19
17 -19 -3 -14 -12 3 -21 12 -21 19 0 18 4 18 24 -5z m98 -5 c4 -19 1 -23 -18
-23 -22 0 -22 1 -7 23 8 13 17 24 18 24 1 0 5 -11 7 -24z m137 7 c0 -11 -3
-13 -6 -5 -7 17 -23 15 -23 -3 0 -8 -5 -15 -10 -15 -7 0 -7 6 0 20 13 25 40
26 39 3z m-79 -23 c0 -5 -5 -10 -11 -10 -5 0 -7 5 -4 10 3 6 8 10 11 10 2 0 4
-4 4 -10z"/>
<path d="M303 195 c-10 -8 -14 -20 -10 -34 4 -18 1 -21 -22 -21 -16 0 -42 -5
-60 -11 -29 -10 -31 -13 -17 -28 18 -20 21 -47 6 -56 -5 -3 -10 -15 -10 -26 0
-17 3 -18 22 -8 12 6 51 12 87 13 51 1 66 4 67 16 1 8 2 20 2 26 1 8 22 4 60
-9 84 -29 272 -33 370 -6 77 20 94 19 90 -9 -3 -14 7 -17 63 -19 37 0 76 -6
88 -12 18 -10 21 -9 21 6 0 10 -7 28 -15 40 -14 21 -14 23 5 35 26 16 25 25
-2 34 -31 11 -34 11 -67 13 -25 1 -28 4 -24 22 10 36 -21 51 -65 32 -92 -39
-164 -51 -281 -49 -100 2 -128 6 -204 32 -70 24 -91 28 -104 19z"/>
</g>
</svg>
